<svg xmlns="http://www.w3.org/2000/svg" width="81.001" height="94.542" viewBox="0 0 81.001 94.542"><defs><style>.a{fill:#004884;}.b{fill:#6293ca;}.c{fill:#ef8f32;}</style></defs><path class="a" d="M414.767,230.33l2.631-8.8h.041l2.649,8.8Zm1.9-10.3-4.92,15.567h1.385l1.229-4.1h6.1l1.253,4.1h1.446L418.3,220.03Z" transform="translate(-411.743 -141.272)"/><path class="a" d="M420.435,233.4c-2.354,0-3.276-1.14-3.257-3.45h1.316c0,1.487.339,2.479,2,2.479a1.7,1.7,0,0,0,1.863-1.917c0-2.851-4.894-2.115-4.894-5.719,0-2,1.372-2.712,3.276-2.712,2.154,0,2.84,1.487,2.84,3.144h-1.268c-.063-1.376-.428-2.11-1.9-2.11a1.552,1.552,0,0,0-1.656,1.572c0,2.714,4.894,1.984,4.894,5.634,0,2.045-1.185,3.079-3.211,3.079" transform="translate(-405.378 -138.864)"/><path class="a" d="M420.893,224.707h1.3V235.6h-1.3Zm-.152-4.677h1.594v1.637h-1.594Z" transform="translate(-401.206 -141.272)"/><path class="a" d="M425.309,233.4c-2.349,0-3.278-1.14-3.254-3.45h1.314c0,1.487.343,2.479,2,2.479a1.694,1.694,0,0,0,1.863-1.917c0-2.851-4.9-2.115-4.9-5.719,0-2,1.376-2.712,3.278-2.712,2.154,0,2.844,1.487,2.844,3.144h-1.274c-.065-1.376-.428-2.11-1.893-2.11a1.548,1.548,0,0,0-1.656,1.572c0,2.714,4.894,1.984,4.894,5.634,0,2.045-1.194,3.079-3.218,3.079" transform="translate(-399.668 -138.864)"/><path class="a" d="M425.44,224.731V223.7h1.741v-2.243l1.3-.56v2.8h2.2v1.036h-2.2v6.991c0,1.444.15,1.785,1.19,1.785a6.668,6.668,0,0,0,1.01-.065v1.12a11.556,11.556,0,0,1-1.235.065c-1.739,0-2.262-.775-2.262-2.108v-7.788Z" transform="translate(-395.703 -140.262)"/><path class="a" d="M429.617,226.98c0-2.419.384-3.862,2.453-3.862s2.456,1.444,2.456,3.862Zm6.207,1.033c0-3.237,0-5.927-3.754-5.927-2.434,0-3.752,1.446-3.752,4.59v2.675c0,3.3,1.88,4.053,3.752,4.053,2.171,0,3.6-.914,3.754-3.537h-1.363a2.224,2.224,0,0,1-2.39,2.5c-2.049,0-2.453-2.006-2.453-3.517v-.84Z" transform="translate(-392.331 -138.864)"/><path class="a" d="M433.752,233.189H432.46V222.3h1.292v1.337h.041a3.171,3.171,0,0,1,2.631-1.55c2.7,0,2.981,2,2.981,3.426v7.677h-1.29v-7.612c0-1.277-.5-2.46-2.008-2.46-1.161,0-2.356.8-2.356,3.241Z" transform="translate(-387.482 -138.864)"/><path class="a" d="M441.595,225.427c.061-1.363-.434-2.308-1.921-2.308a1.8,1.8,0,0,0-1.748,1.253,14.728,14.728,0,0,0-.3,3.426c0,1.963,0,4.572,2,4.572,1.7,0,1.911-1.077,1.976-2.393h1.3c.109,2.931-1.965,3.428-2.974,3.428-3.687,0-3.687-2.92-3.687-5.608a14.356,14.356,0,0,1,.323-3.6,3.142,3.142,0,0,1,3.276-2.112c1.878,0,3.148,1.055,3.039,3.341Z" transform="translate(-383.049 -138.864)"/><path class="a" d="M440.021,224.707h1.3V235.6h-1.3Zm-.152-4.677h1.594v1.637h-1.594Z" transform="translate(-378.805 -141.272)"/><path class="a" d="M447.153,229.611a2.792,2.792,0,0,1-2.692,2.759,1.979,1.979,0,0,1-1.965-2.243c0-2.653,2.8-2.438,4.657-2.5Zm.091,3.578h1.337a23.471,23.471,0,0,1-.128-2.74v-5.475c0-2.781-2.29-2.888-3.387-2.888-1.9,0-3.515.821-3.621,2.909h1.381c0-1.294.944-1.878,2.138-1.878,1.719,0,2.188.973,2.188,2.566v.905c-2.188.178-6.033-.213-6.033,3.6a2.884,2.884,0,0,0,3,3.215,3.5,3.5,0,0,0,3.083-1.552h.046Z" transform="translate(-377.34 -138.864)"/><path class="a" d="M421.02,222.082l22.505-22.507h6l-22.505,22.507,15.706,17.456h-6.166Z" transform="translate(-400.879 -165.228)"/><rect class="a" width="4.598" height="23.695" transform="translate(13.589 50.721)"/><rect class="a" width="4.598" height="23.695" transform="translate(0.135 50.721)"/><path class="b" d="M459.937,220.638c0-11.242-5.065-17.434-14.281-17.434-9.6,0-13.971,8.591-13.971,16.568,0,8.252,4.24,16.572,13.728,16.572,7.627,0,12.26-3.567,14.151-10.916l.05-.185h-4.2l-.024.124a9.053,9.053,0,0,1-8.813,7.288c-6.541,0-10.391-4.325-10.582-11.871h23.938ZM436.131,217.1c.475-4.742,3.257-10.208,9.583-10.208,5.784,0,9.377,3.73,9.9,10.208Z" transform="translate(-388.389 -160.977)"/><rect class="b" width="4.598" height="4.505" transform="translate(0.135 42.722)"/><path class="c" d="M440.035,204.092l4.485-4.507h5.541l-4.475,4.507Z" transform="translate(-378.611 -165.215)"/><path class="b" d="M433.512,195.322c-.028.339-.465.588-.983.547l-8.535-.573c-.517-.037-.921-.341-.9-.675l.009-.158c.026-.334.464-.586.981-.545l8.532.571c.519.035.925.336.9.68Z" transform="translate(-398.447 -171.857)"/><path class="b" d="M430.223,192.484c.276.185.269.693-.026,1.122l-4.8,7.071c-.293.434-.751.625-1.031.434l-.137-.083c-.28-.189-.267-.7.024-1.129l4.809-7.071c.289-.43.753-.625,1.038-.43Z" transform="translate(-397.364 -173.719)"/><path class="b" d="M424.7,192.217c.3-.156.734.106.966.569l3.769,7.677c.234.467.176.968-.132,1.118l-.143.072c-.3.145-.738-.113-.97-.582l-3.767-7.673c-.23-.469-.172-.966.139-1.122Z" transform="translate(-397.064 -173.896)"/><path class="b" d="M443.182,196.541l-.033-.022-9.9-6.761-.037-.015c-2.115-1.12-3.817-.7-5.065,1.242.006-.015-5.423,8.122-5.423,8.122-1.446,2.006-1.409,3.528.169,4.98l-3.281.269a.723.723,0,0,0-.664.769l.317,4.251a.721.721,0,0,0,1.439-.05v-.052s-.193-2.557-.263-3.539c1.036-.087,4.14-.332,4.14-.332a.381.381,0,0,0,.078-.028c.428.291.938.64,1.494,1.02l-2.419,2.822a.754.754,0,0,0-.072.845l1.967,3.233a.722.722,0,0,0,.988.252.749.749,0,0,0,.352-.619.708.708,0,0,0-.106-.376l-1.693-2.79c.384-.449,1.572-1.83,2.18-2.555,2.688,1.824,5.747,3.91,5.747,3.91l.033.033.039.017c2.221,1.168,3.391.955,5-.9l.03-.037,5.868-8.7c1.216-1.943.916-3.571-.886-4.993m-.328,4.205c.019-.017-5.491,8.159-5.805,8.6-1.081,1.251-1.5,1.431-3.185.554-.089-.067-9.618-6.557-9.618-6.557-.758-.584-1.133-1.066-1.133-1.644a3.277,3.277,0,0,1,.794-1.769c.015-.022,5.443-8.163,5.443-8.163.84-1.3,1.73-1.518,3.168-.76.085.061,9.72,6.628,9.776,6.667a2.192,2.192,0,0,1,1.07,1.674,2.7,2.7,0,0,1-.51,1.394" transform="translate(-403.306 -177.458)"/><path class="b" d="M436.738,193.357a12.926,12.926,0,0,0-4.277-6.546,14.1,14.1,0,0,0-6.735-3c-.936-.156-1.633.046-1.917.534a1.1,1.1,0,0,0-.132.575,4.946,4.946,0,0,0,.7,2.043,12.8,12.8,0,0,0,1.819,2.521,2.876,2.876,0,0,0-.606.015,1.485,1.485,0,0,0-1.218.784,1.007,1.007,0,0,0-.063.393,3.27,3.27,0,0,0,.8,1.924,8.489,8.489,0,0,0,1.235,1.214,9.021,9.021,0,0,0-1.75.851,11.423,11.423,0,0,0-5.308-.037,14.049,14.049,0,0,0-6.578,3.333c-.706.632-1,1.294-.795,1.826a1.187,1.187,0,0,0,.356.471,5.109,5.109,0,0,0,2.03.747,12.834,12.834,0,0,0,3.109.169,2.8,2.8,0,0,0-.373.48,1.515,1.515,0,0,0-.167,1.444,1.037,1.037,0,0,0,.273.3,3.223,3.223,0,0,0,1.989.588,8.293,8.293,0,0,0,1.732-.193,4.364,4.364,0,0,0-.234,1.822c.015.443.163,1.385.163,1.385a7.3,7.3,0,0,0,3.129-1.459,10.81,10.81,0,0,0,.323,1.809l.276.877.79-.48a5.781,5.781,0,0,0,1.73-1.628c.133.1.274.187.425.28a3.9,3.9,0,0,0,4.192-.471,4.239,4.239,0,0,0,1.051-3.78,10.283,10.283,0,0,0-1.4-3.224s-.308-.4-.818-1.042l1.294-.645a19.448,19.448,0,0,0-2.026-.137,10.146,10.146,0,0,0-2.7-1.659c-.265-.1-.541-.208-.831-.308a3.611,3.611,0,0,1,1.287-.606,5.565,5.565,0,0,1,2.076.024,4.823,4.823,0,0,0-1.468-.9,5.691,5.691,0,0,1-2.115-2.039c-.206-.339-.215-.565-.165-.684S427,190.4,429,191.3a3.936,3.936,0,0,0,2.377.152,8.257,8.257,0,0,1-2.714-1.376,14.784,14.784,0,0,1-3.011-3.773,7.346,7.346,0,0,1-.48-1.107,2.535,2.535,0,0,1,.317.033,12.782,12.782,0,0,1,6.112,2.74,11.573,11.573,0,0,1,3.762,5.823,7.729,7.729,0,0,1,.334,2.223,16.592,16.592,0,0,1-.745,3.949l2.069-2.486.015-.083a9.255,9.255,0,0,0-.3-4.04M421.6,205.436l-.039,0,.074-.022a.038.038,0,0,0-.035.02m4.931-8.667a8.032,8.032,0,0,1,1.934,1.144,8.139,8.139,0,0,1,2.816,4.468,4.5,4.5,0,0,1,.061.669,2.645,2.645,0,0,1-.734,1.876,2.564,2.564,0,0,1-2.414.213,1.828,1.828,0,0,1-1.038-1.917,1.286,1.286,0,0,1,1.4-1.122.827.827,0,0,1,.515.248c.634.591-.46,1.9-.46,1.9.1-.043,1.863-.228,2.008-1.34a1.946,1.946,0,0,0-.423-1.461,2.148,2.148,0,0,0-1.515-.786,2.746,2.746,0,0,0-2.966,2.386,3.2,3.2,0,0,0,.562,2.3s-.866.821-1.09,1.036a7.42,7.42,0,0,1-.287-1.277,4.377,4.377,0,0,1,.341-2.03,4.8,4.8,0,0,0-.732.284,10.448,10.448,0,0,0-1.591,1.283,3.582,3.582,0,0,1-1.118.686,4.733,4.733,0,0,1,.443-2.069,6.9,6.9,0,0,1,1.353-1.726c-.445.119-1.118.441-1.852.708a5.731,5.731,0,0,1-2.818.415c-.393-.048-.573-.191-.636-.306s.334-1.214,2.29-2.208a3.97,3.97,0,0,0,1.62-1.748,8.12,8.12,0,0,1-2.783,1.237,15.028,15.028,0,0,1-4.826-.046,7,7,0,0,1-1.159-.323c.059-.065.132-.143.224-.228a12.83,12.83,0,0,1,5.977-3.011,11.622,11.622,0,0,1,6.9.749" transform="translate(-411.623 -183.754)"/><path class="a" d="M452.726,225.488a3.405,3.405,0,1,1-3.391-3.4,3.394,3.394,0,0,1,3.391,3.4m-6.3,0a2.9,2.9,0,1,0,2.909-2.892,2.9,2.9,0,0,0-2.909,2.892m2.267,1.967h-.643v-3.925h1.563a.987.987,0,0,1,1.094.986.97.97,0,0,1-.855.91v.006c.5.056.667.213.693,1a5.283,5.283,0,0,0,.152,1.023h-.619a3.919,3.919,0,0,1-.167-1.307.51.51,0,0,0-.589-.439h-.63Zm0-2.256h.808a.567.567,0,0,0,.578-.63.548.548,0,0,0-.578-.6h-.808Z" transform="translate(-371.725 -138.862)"/></svg>